<?xml version="1.0" encoding="UTF-8" standalone="no"?>
<svg
   xmlns:dc="http://purl.org/dc/elements/1.1/"
   xmlns:cc="http://creativecommons.org/ns#"
   xmlns:rdf="http://www.w3.org/1999/02/22-rdf-syntax-ns#"
   xmlns:svg="http://www.w3.org/2000/svg"
   xmlns="http://www.w3.org/2000/svg"
   xmlns:sodipodi="http://sodipodi.sourceforge.net/DTD/sodipodi-0.dtd"
   xmlns:inkscape="http://www.inkscape.org/namespaces/inkscape"
   width="377.953"
   height="377.953"
   viewBox="0 0 100 100"
   version="1.1"
   id="svg39"
   sodipodi:docname="neovimbr-nome-linha-grayscale.svg"
   inkscape:version="0.92.3 (2405546, 2018-03-11)"
   inkscape:export-filename="C:\projetos\logos\telegram-groups\neovimbr\neovimbr-nome-linha-grayscale-borda-3.png"
   inkscape:export-xdpi="126"
   inkscape:export-ydpi="126">
  <metadata
     id="metadata43">
    <rdf:RDF>
      <cc:Work
         rdf:about="">
        <dc:format>image/svg+xml</dc:format>
        <dc:type
           rdf:resource="http://purl.org/dc/dcmitype/StillImage" />
      </cc:Work>
    </rdf:RDF>
  </metadata>
  <sodipodi:namedview
     pagecolor="#ffffff"
     bordercolor="#666666"
     borderopacity="1"
     objecttolerance="10"
     gridtolerance="10"
     guidetolerance="10"
     inkscape:pageopacity="0"
     inkscape:pageshadow="2"
     inkscape:window-width="1600"
     inkscape:window-height="847"
     id="namedview41"
     showgrid="false"
     inkscape:zoom="2.497665"
     inkscape:cx="211.54705"
     inkscape:cy="192.01556"
     inkscape:window-x="-8"
     inkscape:window-y="-8"
     inkscape:window-maximized="1"
     inkscape:current-layer="svg39" />
  <defs
     id="defs17">
    <linearGradient
       id="A"
       x1="-51.383"
       y1="161.525"
       x2="-51.383"
       y2="221.864"
       gradientUnits="userSpaceOnUse"
       gradientTransform="matrix(1.2979353,0,0,1.2979353,94.330986,-198.92498)">
      <stop
         offset="0%"
         stop-opacity=".8"
         stop-color="#16b0ed"
         id="stop2" />
      <stop
         offset="100%"
         stop-opacity=".837"
         stop-color="#0f59b2"
         id="stop4" />
    </linearGradient>
    <linearGradient
       id="B"
       x1="-14.624"
       y1="161.525"
       x2="-14.624"
       y2="221.864"
       gradientUnits="userSpaceOnUse"
       gradientTransform="matrix(1.2979353,0,0,1.2979353,94.330986,-198.92498)">
      <stop
         offset="0%"
         stop-color="#7db643"
         id="stop7" />
      <stop
         offset="100%"
         stop-color="#367533"
         id="stop9" />
    </linearGradient>
    <linearGradient
       id="C"
       x1="-32.941"
       y1="161.608"
       x2="-32.941"
       y2="221.947"
       gradientUnits="userSpaceOnUse"
       gradientTransform="matrix(1.2979353,0,0,1.2979353,94.330986,-198.92498)">
      <stop
         offset="0%"
         stop-opacity=".8"
         stop-color="#88c649"
         id="stop12" />
      <stop
         offset="100%"
         stop-opacity=".84"
         stop-color="#439240"
         id="stop14" />
    </linearGradient>
    <filter
       style="color-interpolation-filters:sRGB;"
       inkscape:label="Greyscale"
       id="filter1102">
      <feColorMatrix
         values="0.21 0.72 0.072 0 0 0.21 0.72 0.072 0 0 0.21 0.72 0.072 0 0 0 0 0 1 0 "
         id="feColorMatrix1100"
         result="fbSourceGraphic" />
      <feColorMatrix
         result="fbSourceGraphicAlpha"
         in="fbSourceGraphic"
         values="0 0 0 -1 0 0 0 0 -1 0 0 0 0 -1 0 0 0 0 1 0"
         id="feColorMatrix1116" />
      <feColorMatrix
         id="feColorMatrix1118"
         values="0.21 0.72 0.072 0 0 0.21 0.72 0.072 0 0 0.21 0.72 0.072 0 0 0 0 0 1 0 "
         in="fbSourceGraphic" />
    </filter>
    <filter
       style="color-interpolation-filters:sRGB;"
       inkscape:label="Greyscale"
       id="filter1106">
      <feColorMatrix
         values="0.21 0.72 0.072 0 0 0.21 0.72 0.072 0 0 0.21 0.72 0.072 0 0 0 0 0 1 0 "
         id="feColorMatrix1104"
         result="fbSourceGraphic" />
      <feColorMatrix
         result="fbSourceGraphicAlpha"
         in="fbSourceGraphic"
         values="0 0 0 -1 0 0 0 0 -1 0 0 0 0 -1 0 0 0 0 1 0"
         id="feColorMatrix1120" />
      <feColorMatrix
         id="feColorMatrix1122"
         values="0.21 0.72 0.072 0 0 0.21 0.72 0.072 0 0 0.21 0.72 0.072 0 0 0 0 0 1 0 "
         in="fbSourceGraphic" />
    </filter>
    <filter
       style="color-interpolation-filters:sRGB;"
       inkscape:label="Greyscale"
       id="filter1110">
      <feColorMatrix
         values="0.21 0.72 0.072 0 0 0.21 0.72 0.072 0 0 0.21 0.72 0.072 0 0 0 0 0 1 0 "
         id="feColorMatrix1108"
         result="fbSourceGraphic" />
      <feColorMatrix
         result="fbSourceGraphicAlpha"
         in="fbSourceGraphic"
         values="0 0 0 -1 0 0 0 0 -1 0 0 0 0 -1 0 0 0 0 1 0"
         id="feColorMatrix1124" />
      <feColorMatrix
         id="feColorMatrix1126"
         values="0.21 0.72 0.072 0 0 0.21 0.72 0.072 0 0 0.21 0.72 0.072 0 0 0 0 0 1 0 "
         in="fbSourceGraphic" />
    </filter>
    <filter
       style="color-interpolation-filters:sRGB;"
       inkscape:label="Greyscale"
       id="filter1114">
      <feColorMatrix
         values="0.21 0.72 0.072 0 0 0.21 0.72 0.072 0 0 0.21 0.72 0.072 0 0 0 0 0 1 0 "
         id="feColorMatrix1112"
         result="fbSourceGraphic" />
      <feColorMatrix
         result="fbSourceGraphicAlpha"
         in="fbSourceGraphic"
         values="0 0 0 -1 0 0 0 0 -1 0 0 0 0 -1 0 0 0 0 1 0"
         id="feColorMatrix1128" />
      <feColorMatrix
         id="feColorMatrix1130"
         values="0.21 0.72 0.072 0 0 0.21 0.72 0.072 0 0 0.21 0.72 0.072 0 0 0 0 0 1 0 "
         in="fbSourceGraphic" />
    </filter>
    <linearGradient
       id="linearGradient-1"
       y2="97.845656"
       x2="49.02155"
       y1="-0.079835396"
       x1="49.02155"
       gradientTransform="scale(0.46153975,2.1666606)"
       gradientUnits="userSpaceOnUse">
      <stop
         id="stop966"
         offset="0%"
         stop-opacity="0.800235524"
         stop-color="#16B0ED" />
      <stop
         id="stop968"
         offset="100%"
         stop-opacity="0.83700023"
         stop-color="#0F59B2" />
    </linearGradient>
    <linearGradient
       id="linearGradient-2"
       y2="98.851547"
       x2="326.17366"
       y1="-0.069164939"
       x1="326.17366"
       gradientTransform="scale(0.46628455,2.1446132)"
       gradientUnits="userSpaceOnUse">
      <stop
         id="stop971"
         offset="0%"
         stop-color="#7DB643" />
      <stop
         id="stop973"
         offset="100%"
         stop-color="#367533" />
    </linearGradient>
    <linearGradient
       id="linearGradient-3"
       y2="178.55785"
       x2="103.88479"
       y1="-0.11508822"
       x1="103.88479"
       gradientTransform="scale(0.84203823,1.1875945)"
       gradientUnits="userSpaceOnUse">
      <stop
         id="stop976"
         offset="0%"
         stop-opacity="0.8"
         stop-color="#88C649" />
      <stop
         id="stop978"
         offset="100%"
         stop-opacity="0.84"
         stop-color="#439240" />
    </linearGradient>
  </defs>
  <g
     id="g862">
    <path
       d="M 4.4989e-5,-8.2938e-4 H 100.00006 V 99.999191 H 4.4989e-5 Z"
       id="path19"
       inkscape:connector-curvature="0"
       style="fill:#019040;stroke-width:1.66666698" />
    <path
       d="M 50.000055,5.8325051 94.16673,49.999181 50.000055,94.165856 5.8333795,49.999181 Z"
       id="path21"
       inkscape:connector-curvature="0"
       style="fill:#faf900;stroke-width:1.66666698" />
    <circle
       cx="50.000053"
       cy="50.000847"
       r="25.198339"
       id="circle23"
       style="fill:#028fde;stroke-width:1.66666698" />
  </g>
  <path
     style="fill:#ffffff;stroke:#eeeeec;stroke-width:1.09606826;stroke-linejoin:round"
     inkscape:connector-curvature="0"
     id="path25"
     d="m 16.130706,30.195378 -8.4355104,8.520666 v 22.675968 l 8.4355104,8.422863 V 45.823626 l 15.793501,24.04268 6.137983,-6.137982 -0.02108,-0.03204 2.306803,-2.30596 L 40.288893,38.792768 31.747992,30.194534 31.85254,54.25239 16.130705,30.251023 Z" />
  <path
     d="M 19.302538,27.567326 35.977113,10.724019 V 89.041435 L 19.302538,72.392819 Z"
     id="path27"
     style="fill:url(#A);fill-rule:evenodd;stroke-width:1.29793525;filter:url(#filter1114)"
     inkscape:connector-curvature="0"
     transform="matrix(0.50587759,0,0,0.50587759,-2.06911,24.737377)" />
  <path
     d="M 83.734642,27.720482 66.8511,10.725317 67.193755,89.042733 83.848861,72.390223 Z"
     id="path29"
     style="fill:url(#B);fill-rule:evenodd;stroke-width:1.29793525;filter:url(#filter1102)"
     inkscape:connector-curvature="0"
     transform="matrix(0.50587759,0,0,0.50587759,-2.06911,24.737377)" />
  <path
     d="M 35.975815,10.831748 79.330748,77.013469 67.198946,89.149164 23.821949,23.115408 Z"
     id="path31"
     style="fill:url(#C);fill-rule:evenodd;stroke-width:1.29793525;filter:url(#filter1106)"
     inkscape:connector-curvature="0"
     transform="matrix(0.50587759,0,0,0.50587759,-2.06911,24.737377)" />
  <path
     d="M 35.975815,41.365676 35.952452,43.96544 22.635636,24.247207 23.868674,22.98821 Z"
     id="path33"
     inkscape:connector-curvature="0"
     style="fill-opacity:0.12999998;fill-rule:evenodd;stroke-width:1.29793525;filter:url(#filter1110)"
     transform="matrix(0.50587759,0,0,0.50587759,-2.06911,24.737377)" />
  <g
     id="g1070"
     transform="matrix(0.18656781,0,0,0.18656781,-3.0346029,43.935726)"
     style="fill:#ffffff;fill-opacity:1;fill-rule:evenodd;stroke:#eeeeec;stroke-width:5.07417965;stroke-linecap:round;stroke-linejoin:round;stroke-miterlimit:4;stroke-dasharray:none;stroke-opacity:1">
    <path
       id="path1064"
       d="M 303.56978,93 H 283.51973 L 247,1 h 18.34937 c 1.61117,0 2.96813,0.3891618 4.07267,1.165692 1.10275,0.7783236 1.86537,1.762885 2.28248,2.9590643 l 17.72281,49.1384017 c 1.01325,2.869396 1.86537,5.67961 2.55101,8.42885 0.68565,2.751033 1.29789,5.500273 1.83494,8.249512 0.53706,-2.749239 1.14751,-5.498479 1.83494,-8.249512 0.68564,-2.74924 1.56641,-5.559454 2.64052,-8.42885 L 316.45909,5.1247563 C 316.87621,3.928577 317.62271,2.9440156 318.69682,2.165692 319.77093,1.3891618 321.0527,1 322.54572,1 H 340 Z"
       inkscape:connector-curvature="0"
       style="fill:#ffffff;fill-opacity:1;stroke:#eeeeec;stroke-width:5.07417965;stroke-linecap:round;stroke-linejoin:round;stroke-miterlimit:4;stroke-dasharray:none;stroke-opacity:1" />
    <rect
       height="92"
       width="23"
       y="2"
       x="345"
       id="rect1066"
       style="fill:#ffffff;fill-opacity:1;stroke:#eeeeec;stroke-width:5.07417965;stroke-linecap:round;stroke-linejoin:round;stroke-miterlimit:4;stroke-dasharray:none;stroke-opacity:1" />
    <path
       id="path1068"
       d="M 383,94 V 1.4433781 h 13.62391 c 2.8868,0 4.77946,1.353167 5.68159,4.059501 l 1.4434,6.8560459 c 1.62383,-1.804223 3.32344,-3.4586947 5.09702,-4.9616121 1.77358,-1.5029175 3.66804,-2.7965452 5.68339,-3.8790787 2.01355,-1.0825336 4.17865,-1.9395394 6.49531,-2.57101731 C 423.33948,0.31573896 425.87986,0 428.64939,0 c 5.83135,0 10.62885,1.5786948 14.38892,4.7360844 3.75825,3.1573897 6.57108,7.3522076 8.43488,12.5844526 1.4434,-3.067178 3.24765,-5.697735 5.41275,-7.8934737 2.16511,-2.1939347 4.54131,-3.9837236 7.1268,-5.3675623 2.58549,-1.3820346 5.33698,-2.4050288 8.25446,-3.06717854 C 475.18287,0.33017275 478.11478,0 481.06293,0 c 5.11144,0 9.65275,0.78303263 13.6221,2.3454894 3.96936,1.5642611 7.30723,3.8484069 10.0136,6.8560461 2.70638,3.0076395 4.76684,6.6756235 6.17957,11.0057585 C 512.29093,24.537428 513,29.49904 513,35.092131 V 94 H 490.71568 V 35.092131 c 0,-5.894396 -1.29365,-10.329175 -3.87734,-13.306143 -2.5873,-2.976967 -6.37623,-4.465451 -11.3686,-4.465451 -2.28598,0 -4.40418,0.391517 -6.35818,1.172745 -1.95581,0.783033 -3.66985,1.910672 -5.14393,3.382918 -1.47227,1.474049 -2.6306,3.323378 -3.47318,5.547984 -0.84259,2.224607 -1.26298,4.78119 -1.26298,7.667947 V 94 H 436.86054 V 35.092131 c 0,-6.193897 -1.24854,-10.704454 -3.74382,-13.53167 -2.49708,-2.825413 -6.17956,-4.239924 -11.05105,-4.239924 -3.18991,0 -6.17956,0.797467 -8.97615,2.390595 -2.7984,1.593129 -5.39833,3.774434 -7.80339,6.540307 V 94 Z"
       inkscape:connector-curvature="0"
       style="fill:#ffffff;fill-opacity:1;stroke:#eeeeec;stroke-width:5.07417965;stroke-linecap:round;stroke-linejoin:round;stroke-miterlimit:4;stroke-dasharray:none;stroke-opacity:1" />
  </g>
  <rect
     height="3.5447884"
     width="4.2910595"
     y="38.525261"
     x="61.331291"
     id="rect1072"
     style="fill:#ffffff;fill-opacity:1;fill-rule:evenodd;stroke:#eeeeec;stroke-width:0.94667858;stroke-linecap:round;stroke-linejoin:round;stroke-miterlimit:4;stroke-dasharray:none;stroke-opacity:1" />
  <g
     id="g943"
     transform="matrix(1.7660319,0,0,1.7660319,-77.875681,-38.114398)"
     style="fill:#868686;fill-opacity:1">
    <path
       inkscape:connector-curvature="0"
       d="M 74.447935,56.284901 H 72.3298 l -3.858031,-9.719099 h 1.938471 c 0.170208,0 0.31356,0.04111 0.430247,0.123147 0.116497,0.08222 0.197062,0.186235 0.241126,0.312602 l 1.87228,5.191098 c 0.107042,0.30313 0.197062,0.600008 0.269495,0.890444 0.07243,0.290626 0.137112,0.581062 0.193847,0.871498 0.05674,-0.290436 0.121226,-0.580872 0.193848,-0.871498 0.07243,-0.290436 0.165479,-0.587314 0.27895,-0.890444 l 1.919559,-5.191098 c 0.04407,-0.126367 0.122928,-0.230378 0.2364,-0.312602 0.113471,-0.08203 0.24888,-0.123147 0.406607,-0.123147 h 1.843911 z"
       id="path993"
       style="fill:#868686;fill-rule:evenodd;stroke:none;stroke-width:0.10564238;fill-opacity:1" />
    <rect
       id="Rectangle"
       x="78.824722"
       y="46.671444"
       width="2.4297748"
       height="9.719099"
       style="fill:#868686;fill-rule:evenodd;stroke:none;stroke-width:0.10564238;fill-opacity:1" />
    <path
       inkscape:connector-curvature="0"
       d="m 82.839133,56.390544 v -9.777902 h 1.439262 c 0.304968,0 0.504913,0.142952 0.600217,0.428855 l 0.152484,0.724289 c 0.171545,-0.190602 0.351096,-0.365384 0.538461,-0.524156 0.187365,-0.158772 0.387501,-0.295434 0.600407,-0.409795 0.212716,-0.114362 0.441442,-0.204898 0.68618,-0.271609 0.244547,-0.06671 0.512919,-0.100066 0.805499,-0.100066 0.616037,0 1.122857,0.166777 1.520079,0.500331 0.397031,0.333554 0.694185,0.776705 0.891081,1.329452 0.152485,-0.324024 0.34309,-0.601923 0.571816,-0.833886 0.228727,-0.231772 0.479755,-0.42085 0.752892,-0.567042 0.273138,-0.146001 0.563811,-0.254073 0.872021,-0.324024 0.308018,-0.06995 0.617752,-0.104831 0.929202,-0.104831 0.539985,0 1.019739,0.08272 1.439071,0.247783 0.419333,0.165252 0.771953,0.406555 1.05786,0.724289 0.285909,0.317734 0.503581,0.705229 0.652825,1.162675 0.149244,0.457445 0.224152,0.981602 0.224152,1.572469 v 6.223168 h -2.354169 v -6.223168 c 0,-0.622698 -0.136664,-1.091198 -0.409611,-1.405692 -0.273329,-0.314494 -0.6736,-0.471741 -1.201006,-0.471741 -0.241496,0 -0.465268,0.04136 -0.671693,0.123891 -0.206617,0.08272 -0.387692,0.201848 -0.543417,0.35738 -0.155534,0.155722 -0.277903,0.351089 -0.366915,0.586102 -0.08901,0.235013 -0.133425,0.505096 -0.133425,0.81006 v 6.223168 h -2.363318 v -6.223168 c 0,-0.654338 -0.131899,-1.130844 -0.395506,-1.429518 -0.263797,-0.298483 -0.652823,-0.447915 -1.167459,-0.447915 -0.33699,0 -0.652824,0.08425 -0.948262,0.252548 -0.29563,0.168302 -0.570292,0.39874 -0.824369,0.690933 v 7.15712 z"
       id="path996"
       style="fill:#868686;fill-rule:evenodd;stroke:none;stroke-width:0.10564238;fill-opacity:1" />
  </g>
  <rect
     style="fill:#898989;fill-rule:evenodd;stroke:none;stroke-width:0.18656781;fill-opacity:1"
     id="rect1000"
     x="61.331291"
     y="38.525257"
     width="4.29106"
     height="3.5447886" />
</svg>
