<?xml version="1.0" encoding="UTF-8" standalone="no"?>
<svg
   xmlns:sketch="http://www.bohemiancoding.com/sketch/ns"
   xmlns:dc="http://purl.org/dc/elements/1.1/"
   xmlns:cc="http://creativecommons.org/ns#"
   xmlns:rdf="http://www.w3.org/1999/02/22-rdf-syntax-ns#"
   xmlns:svg="http://www.w3.org/2000/svg"
   xmlns="http://www.w3.org/2000/svg"
   xmlns:sodipodi="http://sodipodi.sourceforge.net/DTD/sodipodi-0.dtd"
   xmlns:inkscape="http://www.inkscape.org/namespaces/inkscape"
   width="377.953"
   height="377.953"
   viewBox="0 0 100 100"
   version="1.1"
   id="svg39"
   sodipodi:docname="neovimbr-nome-linha-sem-borda.svg"
   inkscape:version="0.92.3 (2405546, 2018-03-11)"
   inkscape:export-filename="C:\projetos\logos\telegram-groups\neovimbr-nome-linha.png"
   inkscape:export-xdpi="127"
   inkscape:export-ydpi="127">
  <metadata
     id="metadata43">
    <rdf:RDF>
      <cc:Work
         rdf:about="">
        <dc:format>image/svg+xml</dc:format>
        <dc:type
           rdf:resource="http://purl.org/dc/dcmitype/StillImage" />
        <dc:title></dc:title>
      </cc:Work>
    </rdf:RDF>
  </metadata>
  <sodipodi:namedview
     pagecolor="#ffffff"
     bordercolor="#666666"
     borderopacity="1"
     objecttolerance="10"
     gridtolerance="10"
     guidetolerance="10"
     inkscape:pageopacity="0"
     inkscape:pageshadow="2"
     inkscape:window-width="1600"
     inkscape:window-height="847"
     id="namedview41"
     showgrid="false"
     inkscape:zoom="1.7661159"
     inkscape:cx="139.87118"
     inkscape:cy="202.92829"
     inkscape:window-x="-8"
     inkscape:window-y="-8"
     inkscape:window-maximized="1"
     inkscape:current-layer="svg39" />
  <defs
     id="defs17">
    <linearGradient
       id="A"
       x1="-51.383"
       y1="161.525"
       x2="-51.383"
       y2="221.864"
       gradientUnits="userSpaceOnUse"
       gradientTransform="matrix(1.2979353,0,0,1.2979353,94.330986,-198.92498)">
      <stop
         offset="0%"
         stop-opacity=".8"
         stop-color="#16b0ed"
         id="stop2" />
      <stop
         offset="100%"
         stop-opacity=".837"
         stop-color="#0f59b2"
         id="stop4" />
    </linearGradient>
    <linearGradient
       id="B"
       x1="-14.624"
       y1="161.525"
       x2="-14.624"
       y2="221.864"
       gradientUnits="userSpaceOnUse"
       gradientTransform="matrix(1.2979353,0,0,1.2979353,94.330986,-198.92498)">
      <stop
         offset="0%"
         stop-color="#7db643"
         id="stop7" />
      <stop
         offset="100%"
         stop-color="#367533"
         id="stop9" />
    </linearGradient>
    <linearGradient
       id="C"
       x1="-32.941"
       y1="161.608"
       x2="-32.941"
       y2="221.947"
       gradientUnits="userSpaceOnUse"
       gradientTransform="matrix(1.2979353,0,0,1.2979353,94.330986,-198.92498)">
      <stop
         offset="0%"
         stop-opacity=".8"
         stop-color="#88c649"
         id="stop12" />
      <stop
         offset="100%"
         stop-opacity=".84"
         stop-color="#439240"
         id="stop14" />
    </linearGradient>
    <filter
       style="color-interpolation-filters:sRGB;"
       inkscape:label="Greyscale"
       id="filter1102">
      <feColorMatrix
         values="0.21 0.72 0.072 0 0 0.21 0.72 0.072 0 0 0.21 0.72 0.072 0 0 0 0 0 1 0 "
         id="feColorMatrix1100"
         result="fbSourceGraphic" />
      <feColorMatrix
         result="fbSourceGraphicAlpha"
         in="fbSourceGraphic"
         values="0 0 0 -1 0 0 0 0 -1 0 0 0 0 -1 0 0 0 0 1 0"
         id="feColorMatrix1116" />
      <feColorMatrix
         id="feColorMatrix1118"
         values="0.21 0.72 0.072 0 0 0.21 0.72 0.072 0 0 0.21 0.72 0.072 0 0 0 0 0 1 0 "
         in="fbSourceGraphic" />
    </filter>
    <filter
       style="color-interpolation-filters:sRGB;"
       inkscape:label="Greyscale"
       id="filter1106">
      <feColorMatrix
         values="0.21 0.72 0.072 0 0 0.21 0.72 0.072 0 0 0.21 0.72 0.072 0 0 0 0 0 1 0 "
         id="feColorMatrix1104"
         result="fbSourceGraphic" />
      <feColorMatrix
         result="fbSourceGraphicAlpha"
         in="fbSourceGraphic"
         values="0 0 0 -1 0 0 0 0 -1 0 0 0 0 -1 0 0 0 0 1 0"
         id="feColorMatrix1120" />
      <feColorMatrix
         id="feColorMatrix1122"
         values="0.21 0.72 0.072 0 0 0.21 0.72 0.072 0 0 0.21 0.72 0.072 0 0 0 0 0 1 0 "
         in="fbSourceGraphic" />
    </filter>
    <filter
       style="color-interpolation-filters:sRGB;"
       inkscape:label="Greyscale"
       id="filter1110">
      <feColorMatrix
         values="0.21 0.72 0.072 0 0 0.21 0.72 0.072 0 0 0.21 0.72 0.072 0 0 0 0 0 1 0 "
         id="feColorMatrix1108"
         result="fbSourceGraphic" />
      <feColorMatrix
         result="fbSourceGraphicAlpha"
         in="fbSourceGraphic"
         values="0 0 0 -1 0 0 0 0 -1 0 0 0 0 -1 0 0 0 0 1 0"
         id="feColorMatrix1124" />
      <feColorMatrix
         id="feColorMatrix1126"
         values="0.21 0.72 0.072 0 0 0.21 0.72 0.072 0 0 0.21 0.72 0.072 0 0 0 0 0 1 0 "
         in="fbSourceGraphic" />
    </filter>
    <filter
       style="color-interpolation-filters:sRGB;"
       inkscape:label="Greyscale"
       id="filter1114">
      <feColorMatrix
         values="0.21 0.72 0.072 0 0 0.21 0.72 0.072 0 0 0.21 0.72 0.072 0 0 0 0 0 1 0 "
         id="feColorMatrix1112"
         result="fbSourceGraphic" />
      <feColorMatrix
         result="fbSourceGraphicAlpha"
         in="fbSourceGraphic"
         values="0 0 0 -1 0 0 0 0 -1 0 0 0 0 -1 0 0 0 0 1 0"
         id="feColorMatrix1128" />
      <feColorMatrix
         id="feColorMatrix1130"
         values="0.21 0.72 0.072 0 0 0.21 0.72 0.072 0 0 0.21 0.72 0.072 0 0 0 0 0 1 0 "
         in="fbSourceGraphic" />
    </filter>
    <linearGradient
       id="linearGradient-1"
       y2="97.845656"
       x2="49.02155"
       y1="-0.079835396"
       x1="49.02155"
       gradientTransform="scale(0.46153975,2.1666606)"
       gradientUnits="userSpaceOnUse">
      <stop
         id="stop966"
         offset="0%"
         stop-opacity="0.800235524"
         stop-color="#16B0ED" />
      <stop
         id="stop968"
         offset="100%"
         stop-opacity="0.83700023"
         stop-color="#0F59B2" />
    </linearGradient>
    <linearGradient
       id="linearGradient-2"
       y2="98.851547"
       x2="326.17366"
       y1="-0.069164939"
       x1="326.17366"
       gradientTransform="scale(0.46628455,2.1446132)"
       gradientUnits="userSpaceOnUse">
      <stop
         id="stop971"
         offset="0%"
         stop-color="#7DB643" />
      <stop
         id="stop973"
         offset="100%"
         stop-color="#367533" />
    </linearGradient>
    <linearGradient
       id="linearGradient-3"
       y2="178.55785"
       x2="103.88479"
       y1="-0.11508822"
       x1="103.88479"
       gradientTransform="scale(0.84203823,1.1875945)"
       gradientUnits="userSpaceOnUse">
      <stop
         id="stop976"
         offset="0%"
         stop-opacity="0.8"
         stop-color="#88C649" />
      <stop
         id="stop978"
         offset="100%"
         stop-opacity="0.84"
         stop-color="#439240" />
    </linearGradient>
  </defs>
  <g
     id="g862">
    <path
       d="M 4.4989e-5,-8.2938e-4 H 100.00006 V 99.999191 H 4.4989e-5 Z"
       id="path19"
       inkscape:connector-curvature="0"
       style="fill:#019040;stroke-width:1.66666698" />
    <path
       d="M 50.000055,5.8325051 94.16673,49.999181 50.000055,94.165856 5.8333795,49.999181 Z"
       id="path21"
       inkscape:connector-curvature="0"
       style="fill:#faf900;stroke-width:1.66666698" />
    <circle
       cx="50.000053"
       cy="50.000847"
       r="25.198339"
       id="circle23"
       style="fill:#028fde;stroke-width:1.66666698" />
  </g>
  <g
     id="g906"
     transform="translate(-0.52916632)">
    <path
       d="m 14.525743,30.195378 -8.4355107,8.520666 v 22.675968 l 8.4355107,8.422863 V 45.823626 l 15.793501,24.04268 6.137983,-6.137982 -0.02108,-0.03204 2.306803,-2.30596 L 38.68393,38.792768 30.143029,30.194534 30.247577,54.25239 14.525742,30.251023 Z"
       id="path25"
       inkscape:connector-curvature="0"
       style="fill:#ffffff;stroke:none;stroke-width:1.09606826;stroke-linejoin:round" />
    <path
       transform="matrix(0.50587759,0,0,0.50587759,-3.6740733,24.737377)"
       inkscape:connector-curvature="0"
       style="fill:url(#A);fill-rule:evenodd;stroke-width:1.29793525;filter:url(#filter1114)"
       id="path27"
       d="M 19.302538,27.567326 35.977113,10.724019 V 89.041435 L 19.302538,72.392819 Z" />
    <path
       transform="matrix(0.50587759,0,0,0.50587759,-3.6740733,24.737377)"
       inkscape:connector-curvature="0"
       style="fill:url(#B);fill-rule:evenodd;stroke-width:1.29793525;filter:url(#filter1102)"
       id="path29"
       d="M 83.734642,27.720482 66.8511,10.725317 67.193755,89.042733 83.848861,72.390223 Z" />
    <path
       transform="matrix(0.50587759,0,0,0.50587759,-3.6740733,24.737377)"
       inkscape:connector-curvature="0"
       style="fill:url(#C);fill-rule:evenodd;stroke-width:1.29793525;filter:url(#filter1106)"
       id="path31"
       d="M 35.975815,10.831748 79.330748,77.013469 67.198946,89.149164 23.821949,23.115408 Z" />
    <path
       transform="matrix(0.50587759,0,0,0.50587759,-3.6740733,24.737377)"
       style="fill-opacity:0.12999998;fill-rule:evenodd;stroke-width:1.29793525;filter:url(#filter1110)"
       inkscape:connector-curvature="0"
       id="path33"
       d="M 35.975815,41.365676 35.952452,43.96544 22.635636,24.247207 23.868674,22.98821 Z" />
  </g>
  <g
     style="fill:#444444;fill-rule:evenodd;stroke:none;stroke-width:1"
     id="wordmark"
     sketch:type="MSLayerGroup"
     transform="matrix(0.10564238,0,0,0.10564238,42.378101,43.396531)">
    <g
       id="Group"
       sketch:type="MSShapeGroup">
      <g
         transform="translate(0,29)"
         id="g998">
        <path
           inkscape:connector-curvature="0"
           d="M 0,95 V 5.4401583 h 4.6547315 c 1.5503836,0 2.4455242,0.7506824 2.6854219,2.2502472 L 8.1457801,21.191889 C 12.204348,16.032522 16.932481,11.875866 22.33376,8.7255193 27.733248,5.5751731 33.746803,4 40.370844,4 c 4.892839,0 9.205627,0.7812859 12.934783,2.3402572 3.729156,1.5607715 6.817391,3.8110188 9.264705,6.7507418 2.447315,2.941523 4.296676,6.480712 5.549873,10.621167 C 69.373401,27.852621 70,32.533135 70,37.753709 V 95 H 61.496164 V 37.753709 c 0,-8.401523 -1.91023,-14.986647 -5.728901,-19.757171 -3.82046,-4.770524 -9.667519,-7.155786 -17.544757,-7.155786 -5.850639,0 -11.278772,1.515766 -16.29156,4.545499 -5.012787,3.031533 -9.488491,7.18639 -13.4271097,12.46637 V 95 Z"
           id="Shape" />
        <path
           inkscape:connector-curvature="0"
           d="m 123.62381,4 c 5.06667,0 9.75514,0.8678906 14.06905,2.6054687 4.31209,1.7375782 8.05238,4.2675783 11.21904,7.5917973 3.16667,3.324218 5.63848,7.412109 7.41905,12.263671 C 158.10971,31.3125 159,36.882812 159,43.171875 c 0,1.317109 -0.19543,2.215547 -0.5881,2.695312 -0.39266,0.479766 -1.00971,0.71875 -1.85114,0.71875 H 91.595238 v 1.707032 c 0,6.707734 0.783524,12.608672 2.352381,17.699218 1.567048,5.090547 3.8,9.358125 6.695241,12.802735 2.89524,3.444609 6.39305,6.033906 10.49524,7.771484 4.10038,1.737578 8.68571,2.605469 13.75238,2.605469 4.52381,0 8.44504,-0.494141 11.7619,-1.482422 3.31686,-0.988281 6.10714,-2.096953 8.36905,-3.324219 2.2619,-1.227265 4.05695,-2.335937 5.38333,-3.324218 1.32638,-0.988282 2.29267,-1.482422 2.89524,-1.482422 0.78352,0 1.3879,0.300078 1.80952,0.898437 l 2.35238,2.875 c -1.44761,1.796875 -3.36209,3.475156 -5.74523,5.03125 -2.38315,1.557891 -5.03772,2.891172 -7.96191,3.998047 -2.926,1.108672 -6.0619,1.990938 -9.40952,2.650391 C 130.99762,95.669375 127.63552,96 124.25714,96 118.10476,96 112.49524,94.93625 107.42857,92.810547 102.3619,90.684844 98.013619,87.585234 94.385524,83.511719 90.755619,79.438203 87.950857,74.451875 85.971238,68.552734 83.98981,62.653594 83,55.899141 83,48.292969 83,41.885312 83.919238,35.97 85.759524,30.548828 87.59981,25.127656 90.252571,20.455781 93.721429,16.533203 97.188476,12.610625 101.44086,9.5415625 106.47857,7.3242187 111.51267,5.1086719 117.22895,4 123.62381,4 Z m 0.57283,6 c -4.69557,0 -8.90382,0.701754 -12.6229,2.105263 -3.72092,1.403509 -6.93618,3.421053 -9.64947,6.052632 -2.713278,2.631579 -4.908087,5.789473 -6.586255,9.473684 C 93.659847,31.315789 92.549618,35.438597 92,40 h 60 c 0,-4.678947 -0.67237,-8.873684 -2.01343,-12.587719 -1.34291,-3.712281 -3.23176,-6.856141 -5.67023,-9.429825 -2.43848,-2.57193 -5.36611,-4.545614 -8.78107,-5.921052 C 132.12214,10.687719 128.34259,10 124.19664,10 Z"
           id="path989" />
        <path
           inkscape:connector-curvature="0"
           d="m 208.54576,4 c 6.52652,0 12.36855,1.0925 17.52425,3.2792969 5.15387,2.1867969 9.50062,5.2864061 13.04024,9.2988281 3.5378,4.012422 6.23736,8.849609 8.09868,14.509766 1.86132,5.660156 2.79107,11.99414 2.79107,19.001953 0,7.007812 -0.93158,13.327422 -2.79107,18.957031 -1.86132,5.631406 -4.56088,10.452422 -8.09868,14.464844 -3.53962,4.012422 -7.88637,7.097656 -13.04024,9.253906 C 220.91431,94.921875 215.07228,96 208.54576,96 202.0174,96 196.1772,94.921875 191.0215,92.765625 c -5.1557,-2.15625 -9.51709,-5.241484 -13.086,-9.253906 -3.56891,-4.012422 -6.28494,-8.835235 -8.14443,-14.464844 C 167.92975,63.417266 167,57.097656 167,50.089844 c 0,-7.007813 0.92975,-13.341797 2.79107,-19.001953 1.86132,-5.660157 4.57552,-10.495547 8.14443,-14.509766 3.56891,-4.012422 7.9303,-7.1120312 13.086,-9.2988281 C 196.1772,5.0942969 202.0174,4 208.54576,4 Z m -0.50075,86 c 5.34143,0 10.00596,-0.918352 13.99718,-2.756865 3.98943,-1.838513 7.31995,-4.474256 9.99157,-7.909039 2.66981,-3.434782 4.66452,-7.576407 5.98593,-12.42849 C 239.3375,62.055332 240,56.617529 240,50.590389 c 0,-5.965675 -0.6607,-11.389016 -1.98031,-16.270023 -1.32141,-4.881007 -3.31612,-9.053364 -5.98593,-12.518879 -2.66982,-3.463707 -6.00034,-6.130183 -9.99157,-7.999427 C 218.05097,11.934622 213.38464,11 208.04501,11 c -5.33964,0 -10.00777,0.934622 -13.99719,2.80206 -3.99122,1.869244 -7.32174,4.53572 -9.99156,7.999427 -2.67162,3.465515 -4.68073,7.637872 -6.03094,12.518879 C 176.6751,39.201373 176,44.624714 176,50.590389 c 0,6.025332 0.6751,11.464943 2.02532,16.315217 1.35021,4.852083 3.35932,8.993708 6.03094,12.42849 2.66982,3.434783 6.00034,6.070526 9.99156,7.909039 C 198.03724,89.081648 202.70357,90 208.04501,90 Z"
           id="path991" />
        <path
           inkscape:connector-curvature="0"
           d="M 303.56978,93 H 283.51973 L 247,1 h 18.34937 c 1.61117,0 2.96813,0.3891618 4.07267,1.165692 1.10275,0.7783236 1.86537,1.762885 2.28248,2.9590643 l 17.72281,49.1384017 c 1.01325,2.869396 1.86537,5.67961 2.55101,8.42885 0.68565,2.751033 1.29789,5.500273 1.83494,8.249512 0.53706,-2.749239 1.14751,-5.498479 1.83494,-8.249512 0.68564,-2.74924 1.56641,-5.559454 2.64052,-8.42885 L 316.45909,5.1247563 C 316.87621,3.928577 317.62271,2.9440156 318.69682,2.165692 319.77093,1.3891618 321.0527,1 322.54572,1 H 340 Z"
           id="path993" />
        <rect
           id="Rectangle"
           x="345"
           y="2"
           width="23"
           height="92" />
        <path
           inkscape:connector-curvature="0"
           d="M 383,94 V 1.4433781 h 13.62391 c 2.8868,0 4.77946,1.353167 5.68159,4.059501 l 1.4434,6.8560459 c 1.62383,-1.804223 3.32344,-3.4586947 5.09702,-4.9616121 1.77358,-1.5029175 3.66804,-2.7965452 5.68339,-3.8790787 2.01355,-1.0825336 4.17865,-1.9395394 6.49531,-2.57101731 C 423.33948,0.31573896 425.87986,0 428.64939,0 c 5.83135,0 10.62885,1.5786948 14.38892,4.7360844 3.75825,3.1573897 6.57108,7.3522076 8.43488,12.5844526 1.4434,-3.067178 3.24765,-5.697735 5.41275,-7.8934737 2.16511,-2.1939347 4.54131,-3.9837236 7.1268,-5.3675623 2.58549,-1.3820346 5.33698,-2.4050288 8.25446,-3.06717854 C 475.18287,0.33017275 478.11478,0 481.06293,0 c 5.11144,0 9.65275,0.78303263 13.6221,2.3454894 3.96936,1.5642611 7.30723,3.8484069 10.0136,6.8560461 2.70638,3.0076395 4.76684,6.6756235 6.17957,11.0057585 C 512.29093,24.537428 513,29.49904 513,35.092131 V 94 H 490.71568 V 35.092131 c 0,-5.894396 -1.29365,-10.329175 -3.87734,-13.306143 -2.5873,-2.976967 -6.37623,-4.465451 -11.3686,-4.465451 -2.28598,0 -4.40418,0.391517 -6.35818,1.172745 -1.95581,0.783033 -3.66985,1.910672 -5.14393,3.382918 -1.47227,1.474049 -2.6306,3.323378 -3.47318,5.547984 -0.84259,2.224607 -1.26298,4.78119 -1.26298,7.667947 V 94 H 436.86054 V 35.092131 c 0,-6.193897 -1.24854,-10.704454 -3.74382,-13.53167 -2.49708,-2.825413 -6.17956,-4.239924 -11.05105,-4.239924 -3.18991,0 -6.17956,0.797467 -8.97615,2.390595 -2.7984,1.593129 -5.39833,3.774434 -7.80339,6.540307 V 94 Z"
           id="path996" />
      </g>
      <rect
         id="rect1000"
         x="345"
         y="0"
         width="23"
         height="19" />
    </g>
  </g>
</svg>
