<svg xmlns="http://www.w3.org/2000/svg" width="377.953" height="377.953" viewBox="0 0 100 100" xmlns:v="https://vecta.io/nano"><defs><linearGradient id="A" x1="-51.383" y1="161.525" x2="-51.383" y2="221.864" gradientUnits="userSpaceOnUse"><stop offset="0%" stop-opacity=".8" stop-color="#16b0ed"/><stop offset="100%" stop-opacity=".837" stop-color="#0f59b2"/></linearGradient><linearGradient id="B" x1="-14.624" y1="161.525" x2="-14.624" y2="221.864" gradientUnits="userSpaceOnUse"><stop offset="0%" stop-color="#7db643"/><stop offset="100%" stop-color="#367533"/></linearGradient><linearGradient id="C" x1="-32.941" y1="161.608" x2="-32.941" y2="221.947" gradientUnits="userSpaceOnUse"><stop offset="0%" stop-opacity=".8" stop-color="#88c649"/><stop offset="100%" stop-opacity=".84" stop-color="#439240"/></linearGradient></defs><g transform="matrix(1.666667 0 0 1.666667 -16.611625 -36.43417)"><path d="M9.967 21.86h60v60h-60z" fill="#019040"/><path d="M39.967 25.36l26.5 26.5-26.5 26.5-26.5-26.5z" fill="#faf900"/><circle cx="39.967" cy="51.861" r="15.119" fill="#028fde"/><path d="M31.553 28.334L21.548 38.44v26.895l10.005 9.99V46.87l18.732 28.516 7.28-7.28-.025-.038 2.736-2.735-.07-26.802-10.13-10.198.124 28.534L31.553 28.4z" fill="#fff" stroke="#fff" stroke-width="1.3" stroke-linejoin="round"/><g transform="matrix(.778761 0 0 .778761 66.565553 -97.494465)" fill-rule="evenodd"><path d="M-57.806 174.502l12.847-12.977v60.34l-12.847-12.827z" fill="url(#A)"/><path d="M-8.164 174.62l-13.008-13.094.264 60.34 12.832-12.83z" fill="url(#B)"/><path d="M-44.96 161.608l33.403 50.99-9.347 9.35-33.42-50.876z" fill="url(#C)"/><path d="M-44.96 185.133l-.018 2.003-10.26-15.192.95-.97z" fill-opacity=".13"/></g></g></svg>